<svg id="Layer_1" data-name="Layer 1" xmlns="http://www.w3.org/2000/svg" viewBox="0 0 83.86271 72" xmlns:xlink="http://www.w3.org/1999/xlink"><defs><style>.cls-1{fill:#fff;}.cls-1,.cls-2,.cls-5{fill-rule:evenodd;}.cls-2{fill:#373837;}.cls-3{mask:url(#mask);}.cls-4{mask:url(#mask-2-2);}.cls-5{fill:#231f20;}</style>
<mask id="mask" x="20.84614" y="60.97606" width="4.19137" height="11.06813" maskUnits="userSpaceOnUse"><g id="mask-2"><polygon id="path-1" class="cls-1" points="21.038 60.976 25.038 61.046 24.846 72.044 20.846 71.974 21.038 60.976"></polygon></g></mask><mask id="mask-2-2" x="6.3713" y="-0.60441" width="72.14105" height="67.22907" maskUnits="userSpaceOnUse"><g id="mask-4"><polygon id="path-3" class="cls-1" points="7.523 -0.604 78.512 0.635 77.36 66.625 6.371 65.386 7.523 -0.604"></polygon></g></mask></defs><g id="Symbols"><g id="header_scrolled" data-name="header/scrolled"><g id="Group-21-Copy-3"><path id="Fill-1" class="cls-2" d="M5.52605,25.46158C3.0921,24.02757-.10441,20.68023.00262,19.57451c.01493-.15823.12139-.64469.292-.66068.34382-.03377.28337.34763.55735.46317,1.23258.52023,2.77351,2.378,6.17347,3.71873,2.66858,1.052,5.42187,1.3601,4.77255,3.19372-.50381,1.4225-3.48938.81109-6.27195-.82787" fill="#373837"></path><path id="Fill-3" class="cls-2" d="M60.75676,66.55112c.29814,3.10179.69969,2.9719,1.04142,4.59861,0,0,.11035.25769.02854.34241a5.76293,5.76293,0,0,1-1.59256.52113c-.08523-.16243.117-.26174.00985-.46194-.55542-1.04345-1.99356-1.83452-2.772-4.96739-.74333-2.99469-.77659-5.28248,1.0729-5.55738,2.57733-.38173,2.01089,3.43286,2.21181,5.52456" fill="#373837"></path><g id="Group-7"><g class="cls-3"><path id="Fill-5" class="cls-2" d="M24.63742,67.06122c-.54482,2.93673-.57283,3.124-1.27613,4.58261,0,0-.08249.2868-.19216.33988a4.70777,4.70777,0,0,1-1.50326-.08756c-.04577-.17526.19565-.20391.13887-.42045a15.88168,15.88168,0,0,1-.85141-5.61152c.04282-2.97584.15917-4.75445,2.21774-4.84684,2.44825-.1096,1.83366,4.063,1.46635,6.04388" fill="#373837"></path></g></g><g id="Group-10"><g class="cls-4"><path id="Fill-8" class="cls-5" d="M6.89526,37.80206C5.35673,61.177,26.92761,66.32083,44.15576,65.99244c14.38766-.27363,35.82236-4.04333,33.49592-30.18893C75.903,16.1602,63.28362.36852,44.30883.03731,19.97233-.38748,8.21691,17.71818,6.89526,37.80206" fill="#231F20"></path></g></g><path id="Fill-19" class="cls-2" d="M75.92431,38.17586c2.06046,2.01663,6.24893,4.26951,7.34157,3.86621.15656-.058.62217-.29336.59575-.46616-.05218-.34822-.42243-.1856-.60834-.42582-.83511-1.07541-3.1005-2.09614-5.3084-5.09066-1.73267-2.34972-2.73322-4.985-4.42687-3.84993-1.31411.87991.05192,3.66258,2.40629,5.96636" fill="#373837"></path></g></g></g></svg>