<svg width="291" height="299" viewBox="0 0 291 299" preserveAspectRatio="none" version="1.1" xmlns="http://www.w3.org/2000/svg" xmlns:xlink="http://www.w3.org/1999/xlink">
  <title>Bitmap Copy 10</title>
  <defs>
    <path d="M0,0 L281,0 C279,8 279,29.0501963 281,63.150589 C284,114.301178 278,116.915466 281,164.957733 C283,196.985911 283,229 281,261 L281,261.587813 C277.31795,273.195938 271.704018,279 264.158203,279 L189.293822,279 L189.293822,279 C173.962519,279 148.030203,275.114464 120.941986,279 C120.897522,279.006378 120.203573,279.010177 119.041975,279.012105 L118.516047,279.012819 C118.423797,279.01292 118.329293,279.013012 118.232602,279.013094 L114.742002,279.013205 C114.608195,279.013138 114.472863,279.013065 114.336073,279.012986 L113.06738,279.012123 C112.632552,279.011786 112.186388,279.011403 111.730679,279.010981 L110.807063,279.010085 C108.936496,279.008197 106.932284,279.005752 104.908934,279.003196 L103.896194,279.001911 C101.025251,278.998255 98.1542028,278.994526 95.6086172,278.991991 L94.7242193,278.991148 C94.5792487,278.991016 94.4355368,278.990889 94.2931499,278.990767 L93.4552581,278.990096 C93.3184361,278.989995 93.1830717,278.989899 93.049231,278.989808 L91.5205243,278.989014 C91.399934,278.988974 91.2811326,278.98894 91.1641862,278.988913 L89.8541157,278.98894 C89.7530705,278.988973 89.6541453,278.989014 89.5574066,278.989063 L88.7475814,278.989735 C88.6645577,278.989836 88.5839193,278.989946 88.5057323,278.990066 L88.0665588,278.990896 C87.3172842,278.992629 86.8806777,278.995549 86.8449402,279 C69.6139684,281.145915 70.3400023,274.710025 31.6268005,274.710025 L0,274.710025 L0,274.710025 L0,0 Z" id="path-about-dropdown"></path>
    <filter x="-5.7%" y="-5.0%" width="111.3%" height="111.5%" filterUnits="objectBoundingBox" id="filter-3">
      <feOffset dx="0" dy="2" in="SourceAlpha" result="shadowOffsetOuter1"></feOffset>
      <feGaussianBlur stdDeviation="5" in="shadowOffsetOuter1" result="shadowBlurOuter1"></feGaussianBlur>
      <feColorMatrix values="0 0 0 0 0   0 0 0 0 0   0 0 0 0 0  0 0 0 0.115521198 0" type="matrix" in="shadowBlurOuter1"></feColorMatrix>
    </filter>
  <path d="M0,0 L281,0 C279,8 279,29.0501963 281,63.150589 C284,114.301178 278,116.915466 281,164.957733 C283,196.985911 283,229 281,261 L281,261.587813 C277.31795,273.195938 271.704018,279 264.158203,279 L189.293822,279 L189.293822,279 C173.962519,279 148.030203,275.114464 120.941986,279 C120.897522,279.006378 120.203573,279.010177 119.041975,279.012105 L118.516047,279.012819 C118.423797,279.01292 118.329293,279.013012 118.232602,279.013094 L114.742002,279.013205 C114.608195,279.013138 114.472863,279.013065 114.336073,279.012986 L113.06738,279.012123 C112.632552,279.011786 112.186388,279.011403 111.730679,279.010981 L110.807063,279.010085 C108.936496,279.008197 106.932284,279.005752 104.908934,279.003196 L103.896194,279.001911 C101.025251,278.998255 98.1542028,278.994526 95.6086172,278.991991 L94.7242193,278.991148 C94.5792487,278.991016 94.4355368,278.990889 94.2931499,278.990767 L93.4552581,278.990096 C93.3184361,278.989995 93.1830717,278.989899 93.049231,278.989808 L91.5205243,278.989014 C91.399934,278.988974 91.2811326,278.98894 91.1641862,278.988913 L89.8541157,278.98894 C89.7530705,278.988973 89.6541453,278.989014 89.5574066,278.989063 L88.7475814,278.989735 C88.6645577,278.989836 88.5839193,278.989946 88.5057323,278.990066 L88.0665588,278.990896 C87.3172842,278.992629 86.8806777,278.995549 86.8449402,279 C69.6139684,281.145915 70.3400023,274.710025 31.6268005,274.710025 L0,274.710025 L0,274.710025 L0,0 Z" id="path-about-dropdown"></path><path d="M0,0 L281,0 C279,8 279,29.0501963 281,63.150589 C284,114.301178 278,116.915466 281,164.957733 C283,196.985911 283,229 281,261 L281,261.587813 C277.31795,273.195938 271.704018,279 264.158203,279 L189.293822,279 L189.293822,279 C173.962519,279 148.030203,275.114464 120.941986,279 C120.897522,279.006378 120.203573,279.010177 119.041975,279.012105 L118.516047,279.012819 C118.423797,279.01292 118.329293,279.013012 118.232602,279.013094 L114.742002,279.013205 C114.608195,279.013138 114.472863,279.013065 114.336073,279.012986 L113.06738,279.012123 C112.632552,279.011786 112.186388,279.011403 111.730679,279.010981 L110.807063,279.010085 C108.936496,279.008197 106.932284,279.005752 104.908934,279.003196 L103.896194,279.001911 C101.025251,278.998255 98.1542028,278.994526 95.6086172,278.991991 L94.7242193,278.991148 C94.5792487,278.991016 94.4355368,278.990889 94.2931499,278.990767 L93.4552581,278.990096 C93.3184361,278.989995 93.1830717,278.989899 93.049231,278.989808 L91.5205243,278.989014 C91.399934,278.988974 91.2811326,278.98894 91.1641862,278.988913 L89.8541157,278.98894 C89.7530705,278.988973 89.6541453,278.989014 89.5574066,278.989063 L88.7475814,278.989735 C88.6645577,278.989836 88.5839193,278.989946 88.5057323,278.990066 L88.0665588,278.990896 C87.3172842,278.992629 86.8806777,278.995549 86.8449402,279 C69.6139684,281.145915 70.3400023,274.710025 31.6268005,274.710025 L0,274.710025 L0,274.710025 L0,0 Z" id="path-about-dropdown"></path><path d="M0,0 L281,0 C279,8 279,29.0501963 281,63.150589 C284,114.301178 278,116.915466 281,164.957733 C283,196.985911 283,229 281,261 L281,261.587813 C277.31795,273.195938 271.704018,279 264.158203,279 L189.293822,279 L189.293822,279 C173.962519,279 148.030203,275.114464 120.941986,279 C120.897522,279.006378 120.203573,279.010177 119.041975,279.012105 L118.516047,279.012819 C118.423797,279.01292 118.329293,279.013012 118.232602,279.013094 L114.742002,279.013205 C114.608195,279.013138 114.472863,279.013065 114.336073,279.012986 L113.06738,279.012123 C112.632552,279.011786 112.186388,279.011403 111.730679,279.010981 L110.807063,279.010085 C108.936496,279.008197 106.932284,279.005752 104.908934,279.003196 L103.896194,279.001911 C101.025251,278.998255 98.1542028,278.994526 95.6086172,278.991991 L94.7242193,278.991148 C94.5792487,278.991016 94.4355368,278.990889 94.2931499,278.990767 L93.4552581,278.990096 C93.3184361,278.989995 93.1830717,278.989899 93.049231,278.989808 L91.5205243,278.989014 C91.399934,278.988974 91.2811326,278.98894 91.1641862,278.988913 L89.8541157,278.98894 C89.7530705,278.988973 89.6541453,278.989014 89.5574066,278.989063 L88.7475814,278.989735 C88.6645577,278.989836 88.5839193,278.989946 88.5057323,278.990066 L88.0665588,278.990896 C87.3172842,278.992629 86.8806777,278.995549 86.8449402,279 C69.6139684,281.145915 70.3400023,274.710025 31.6268005,274.710025 L0,274.710025 L0,274.710025 L0,0 Z" id="path-about-dropdown"></path></defs>
  <g id="-" stroke="none" stroke-width="1" fill="none" fill-rule="evenodd">
    <g id="Subnav-About" transform="translate(0.000000, -76.000000)" fill="none">
      <g id="Bitmap-Copy-10" transform="translate(-1.000000, 84.000000)" fill="none">
        <mask id="mask-2" fill="#FFFFFF">
          <use xlink:href="#path-about-dropdown" fill="#FFFFFF"></use>
        </mask>
        <g id="Mask" fill="none">
          <use fill="black" fill-opacity="1" filter="url(#filter-3)" xlink:href="#path-about-dropdown"></use>
          <use fill="#FFF5CC" fill-rule="evenodd" xlink:href="#path-about-dropdown"></use>
        </g>
      </g>
    </g>
  </g>
</svg>