<svg xmlns:xlink="http://www.w3.org/1999/xlink" viewBox="0 0 66 65" xmlns="http://www.w3.org/2000/svg" title="Close" role="icon" width="66"  height="65" >
      <g fill-rule="evenodd">
         <g transform="translate(-214 -782)" fill="#FFD419" stroke="#000000" stroke-width="4px">
            <path d="m227.61 790.03c5.0225-4.2344 19.051-6.0668 25.091-4.3566 0.96481 0.27322 1.9168 0.46596 2.8595 0.64348l0.82017 0.15218c0.27758 0.051182 0.55508 0.10248 0.84067 0.15678l0.55754 0.10835c4.1018 0.81716 8.2591 2.1135 13.039 7.689 4.651 5.4246 5.3928 9.3744 5.6953 13.338l0.038038 0.52866 0.017637 0.26464 0.035331 0.55826c0.087523 1.4144 0.16494 2.7212 0.39865 4.1165 0.93114 5.5589-3.7204 14.736-6.3927 19.752-0.34496 0.64752-0.64979 1.2195-0.89376 1.6962-1.7819 3.4819-10.102 6.7136-18.834 8.6981l-0.8849 0.19769c-1.4833 0.32577-2.9573 0.62178-4.3813 0.88625-4.7445 0.88122-9.6142-0.27203-13.953-2.6382-4.8483-2.6441-9.0114-6.7928-11.541-11.076-4.7184-7.9906-5.3003-16.273-2.2141-25.279 3.0626-8.9373 4.7548-11.266 9.7015-15.436z" fill="#FFDE17" stroke="#000000" stroke-width="4px"></path>
         </g>
         <g transform="matrix(1.3099 0 0 1.3099 16.528 16.223)" fill="none" fill-rule="evenodd">
            <g transform="translate(-785,-30)" fill="#000000" stroke="#000000" stroke-width="1.5268px">
               <g transform="rotate(45 370.32 974.85)" stroke-width="1.5268px" stroke="#000000">
                  <path d="m13.918 0.12224c0.90342 0.20057 1.1917 0.50115 0.94576 0.73039-0.24717 0.22923-0.41056 0.54415-0.49315 0.90208-0.04058 0.17475-0.0025 2.0668 0.05657 4.049l0.01831 0.59572c0.05963 1.8847 0.1331 3.7038 0.17109 4.0621 0.01813 0.17227 0.04659 0.60806 0.0808 1.1916 0.55062-0.03821 1.0014-0.06799 1.294-0.08249 1.6611-0.08259 6.0575-0.28772 6.9167-0.28772l0.67163-8.37e-4c0.86799-3e-3 1.9237-0.01705 2.0348-0.08175 0.14323-0.08229 0.4728-0.73973 0.73059-0.12314 0.25759 0.61659 0.35813 2.3432 0.15746 3.2478-0.20056 0.90342-0.50115 1.1917-0.73039 0.94576-0.22923-0.24717-0.54416-0.41056-0.90208-0.49315-0.17475-0.04058-2.0668-0.0025-4.049 0.05658l-0.59572 0.01831c-1.8847 0.05963-3.7038 0.1331-4.0621 0.17109-0.18033 0.01898-0.6494 0.04928-1.2744 0.08563 0.07479 1.4383 0.14616 2.7422 0.18058 3.1284 0.08169 0.91631 0.28742 2.2624 0.49345 4.2388 0.20484 1.9761 0.24598 3.2792 0.24598 3.6517 0 0.37226-0.28742 0.61582-0.98661 0.74462-0.69918 0.129-0.86257 0.14323-1.4386 0.14323-0.61689 0-1.5626-0.32926-1.5626-0.52982 0-0.20077 0.12403-0.58736 0.16488-1.1599 0.04144-0.57282 0-3.9526-0.08229-5.1123-0.04344-0.6101-0.2231-2.7688-0.39566-4.9201-1.4355 0.07713-2.7353 0.1483-3.1207 0.18265-0.91631 0.0817-2.2624 0.28742-4.2388 0.49345-1.9761 0.20484-3.2792 0.24598-3.6517 0.24598-0.37226 0-0.61582-0.28742-0.74462-0.98661-0.129-0.69918-0.14323-0.86257-0.14323-1.4386 0-0.61689 0.32926-1.5626 0.52982-1.5626 0.20077 0 0.58736 0.12403 1.1599 0.16488 0.57282 0.04144 3.9526 0 5.1123-0.08229 0.60206-0.04286 2.7122-0.21839 4.8351-0.38884-0.03835-0.54833-0.06797-0.99684-0.08241-1.2884-0.082588-1.6611-0.28772-6.0575-0.28772-6.9167l-8.37e-4 -0.67163c-0.003035-0.86799-0.017052-1.9237-0.081753-2.0348-0.082291-0.14323-0.73973-0.4728-0.12314-0.73059 0.61659-0.25759 2.3432-0.35813 3.2478-0.15746z" stroke-width="1.5268px" stroke="#000000"></path>
               </g>
            </g>
         </g>
      </g>
   </svg>