<svg width="25" height="25" viewBox="0 0 25 25" version="1.1" xmlns="http://www.w3.org/2000/svg" xmlns:xlink="http://www.w3.org/1999/xlink">
    <title>Close</title>
    <g id="-" stroke="none" stroke-width="1" fill="none" fill-rule="evenodd">
        <g id="Cart" transform="translate(-785.000000, -30.000000)" fill="#000000" stroke="#000000" stroke-width="2px">
            <g id="Group-4-Copy" transform="translate(797.787773, 42.961314) rotate(45.000000) translate(-797.787773, -42.961314) translate(784.149183, 29.322723)" stroke="#000000" stroke-width="2px">
                <path d="M13.9179843,0.122235491 C14.8214048,0.322801002 15.1097241,0.623389604 14.8637433,0.852622169 C14.6165698,1.08185473 14.4531789,1.39677686 14.370589,1.75469957 C14.3300104,1.92944801 14.368042,3.82154055 14.4271642,5.80368426 L14.445476,6.39940162 C14.5051029,8.28408859 14.5785728,10.1031836 14.6165698,10.4614863 C14.6346985,10.6337569 14.6631652,11.0695479 14.6973682,11.6530577 C15.247984,11.6148491 15.6987718,11.5850632 15.9914002,11.5705683 C17.6525314,11.4879783 22.0488734,11.2828452 22.9080541,11.2828452 L23.5796821,11.2820076 C24.4476746,11.2789729 25.5033342,11.2649557 25.614494,11.2002553 C25.7577254,11.1179636 26.0872927,10.4605239 26.3450884,11.0771158 C26.6026764,11.6937078 26.7032189,13.4203441 26.5025495,14.3249572 C26.301984,15.2283777 26.0013954,15.5166971 25.7721628,15.2707163 C25.5429302,15.0235428 25.2280081,14.8601519 24.8700854,14.777562 C24.695337,14.7369833 22.8032444,14.7750149 20.8211007,14.8341371 L20.2253833,14.852449 C18.3406964,14.9120758 16.5216014,14.9855458 16.1632987,15.0235428 C15.9829709,15.0425193 15.5138962,15.0728235 14.8888964,15.1091774 C14.9636848,16.5474916 15.0350515,17.8513676 15.0694727,18.2375285 C15.1511682,19.1538356 15.3568976,20.4999407 15.5629252,22.4763056 C15.7677601,24.4523588 15.808906,25.7554634 15.808906,26.1280312 C15.808906,26.5002875 15.5214811,26.7438535 14.8222993,26.8726476 C14.1231174,27.0016493 13.9597265,27.015879 13.3836841,27.015879 C12.766794,27.015879 11.821035,26.6866233 11.821035,26.4860578 C11.821035,26.2852846 11.945069,25.8986948 11.9859167,25.3261846 C12.0273607,24.7533629 11.9859167,21.3735588 11.9036249,20.2138934 C11.8601902,19.603797 11.6805239,17.4451289 11.5079601,15.2937922 C10.072446,15.3709231 8.77269906,15.4420885 8.38725647,15.4764457 C7.47094941,15.5581411 6.12484427,15.7638706 4.1484794,15.9698981 C2.17242614,16.1747331 0.869321584,16.215879 0.496753749,16.215879 C0.124497513,16.215879 -0.119068579,15.9284541 -0.247862589,15.2292722 C-0.376864332,14.5300903 -0.391093993,14.3666994 -0.391093993,13.7906571 C-0.391093993,13.173767 -0.0618383372,12.2280079 0.138727174,12.2280079 C0.339500417,12.2280079 0.72609018,12.3520419 1.29860033,12.3928896 C1.87142208,12.4343337 5.25122618,12.3928896 6.41089161,12.3105979 C7.01295412,12.2677351 9.12307348,12.092205 11.2460056,11.9217534 C11.2076528,11.3734202 11.1780358,10.9249151 11.1635953,10.6333847 C11.0810054,8.97225359 10.8758723,4.57591159 10.8758723,3.71673091 L10.8750347,3.04510283 C10.8719999,2.17711033 10.8579828,1.12145081 10.7932824,1.01029097 C10.7109906,0.867059562 10.0535509,0.537492308 10.6701429,0.279696555 C11.2867348,0.0221085349 13.0133712,-0.078433886 13.9179843,0.122235491 Z" id="Combined-Shape" stroke="#000000" stroke-width="2px"></path>
            </g>
        </g>
    </g>
</svg>