<svg width="84" height="83" viewBox="0 0 84 83" version="1.1" xmlns="http://www.w3.org/2000/svg" xmlns:xlink="http://www.w3.org/1999/xlink">
    <g id="main" stroke="none" stroke-width="1" fill="none" fill-rule="evenodd">
        <path d="M5.80980777,19.4922889 C3.14632063,17.9270685 -0.379331741,14.2246409 -0.284306289,12.978797 C-0.271127577,12.8005244 -0.165004261,12.2512518 0.0194977125,12.2299141 C0.391276125,12.1851739 0.333012344,12.6153686 0.631961031,12.7399529 C1.97688331,13.3009268 3.68109891,15.3603549 7.38917241,16.8016792 C10.299587,17.932575 13.2876866,18.2251074 12.6190404,20.3003666 C12.1002153,21.9103272 8.85478395,21.2812105 5.80980777,19.4922889" id="Fill-1" fill="#373837" transform="translate(6.213813, 16.726666) rotate(14.000000) translate(-6.213813, -16.726666) "></path>
        <path d="M54.2923519,76.7447085 C54.7150192,79.8408146 55.1940898,79.7039369 55.6381761,81.3244349 C55.6381761,81.3244349 55.7759714,81.5801625 55.6795861,81.6662953 C55.5903405,81.7470865 53.8446958,82.3139603 53.7797249,82.2151413 C53.6740581,82.0542266 53.9146644,81.9514014 53.7818668,81.7530957 C53.0936045,80.7195024 51.3515296,79.9536552 50.3519784,76.8348475 C49.3974071,73.8535851 49.3095894,71.5667266 51.5228812,71.2595864 C54.6072105,70.8329287 54.0074798,74.6568233 54.2923519,76.7447085" id="Fill-3" fill="#373837" transform="translate(52.713813, 76.726666) rotate(14.000000) translate(-52.713813, -76.726666) "></path>
        <path d="M15.4187345,67.7954731 C14.9252448,71.0090679 14.9005052,71.2138389 14.2227708,72.8182232 C14.2227708,72.8182232 14.1452968,73.132619 14.0365728,73.1926025 C13.9350103,73.2484491 12.5619633,73.2429334 12.5320154,73.1257244 C12.4831872,72.9354321 12.7240727,72.89958 12.6635258,72.6644725 C12.3445153,71.4399833 11.7234215,69.9562554 11.7143069,66.5599525 C11.7051923,63.3132634 11.7904788,61.3710415 13.8471197,61.2310801 C16.2930835,61.0649192 15.7514168,65.6277963 15.4187345,67.7954731" id="Fill-5" fill="#373837" transform="translate(13.713777, 67.226810) rotate(14.000000) translate(-13.713777, -67.226810) "></path>
        <path d="M3.76052734,42.7122051 C2.51874096,68.5920505 26.3113403,73.8641907 45.2288553,73.1684699 C61.0273683,72.5881268 84.4994843,68.0054895 81.4427794,39.1361865 C79.1454054,17.4465561 64.9811497,0.226258049 44.1324285,0.226258049 C17.39249,0.226258049 4.82719,20.476085 3.76052734,42.7122051" id="Fill-8" fill="#231F20" transform="translate(42.713863, 36.726465) rotate(14.000000) translate(-42.713863, -36.726465) "></path>
        <path d="M11.713813,26.4619589 C11.7644771,31.2379115 21.7094255,32.3519465 35.2533684,32.2159268 C48.7973113,32.0805705 59.7721992,31.4900457 59.713813,25.9809134 C59.6631388,21.1956716 48.6705285,20.1015419 35.1272673,20.2375616 C21.5833244,20.3729179 11.6595064,21.3542507 11.713813,26.4619589" id="Fill-11" fill="#FFCC1E" transform="translate(35.713813, 26.226666) rotate(14.000000) translate(-35.713813, -26.226666) "></path>
        <path d="M52.7139262,22.2474801 C52.7255606,23.352136 53.6299796,24.2381875 54.7346323,24.2265531 C55.839285,24.2155311 56.7253341,23.3104971 56.7136997,22.2064535 C56.7026777,21.1017977 55.7976462,20.2157461 54.6929935,20.2267681 C53.5889532,20.2384026 52.7022918,21.1428242 52.7139262,22.2474801" id="Fill-13" fill="#FEFEFE" transform="translate(54.713813, 22.226666) rotate(14.000000) translate(-54.713813, -22.226666) "></path>
        <path d="M19.7139238,14.2471256 C19.7254303,15.3519238 20.6299697,16.2380639 21.7339553,16.2265556 C22.8385802,16.2150473 23.7245813,15.310366 23.7137141,14.2062072 C23.7015683,13.1014091 22.7970289,12.2152689 21.6930433,12.2267773 C20.5884185,12.2376462 19.7024173,13.1423275 19.7139238,14.2471256" id="Fill-15" fill="#FEFEFE" transform="translate(21.713813, 14.226666) rotate(14.000000) translate(-21.713813, -14.226666) "></path>
        <path d="M57.713813,25.2266664 C57.713813,25.2266664 37.1364062,29.6303341 13.713813,25.3688366 C13.713813,25.3688366 36.9622111,27.0445686 57.713813,25.2266664" id="Fill-17" fill="#211C1D" transform="translate(35.713813, 26.226666) rotate(14.000000) translate(-35.713813, -26.226666) "></path>
        <path d="M75.9900415,51.4361592 C78.2758671,53.4165201 82.8873141,55.5959615 84.0714192,55.1736499 C84.2410758,55.1129466 84.7444601,54.869481 84.7123441,54.6971622 C84.6488101,54.3499137 84.2480576,54.5189689 84.0406995,54.2820305 C83.1093338,53.221356 80.618943,52.2403137 78.1536864,49.2847849 C76.219043,46.9656608 75.0775266,44.3482424 73.2517985,45.5126999 C71.835201,46.4154155 73.3781682,49.173822 75.9900415,51.4361592" id="Fill-19" fill="#373837" transform="translate(78.713813, 50.226666) rotate(14.000000) translate(-78.713813, -50.226666) "></path>
    </g>
</svg>