<svg xmlns:xlink="http://www.w3.org/1999/xlink" xmlns="http://www.w3.org/2000/svg" viewBox="0 0 600 898" preserveAspectRatio="none" width="600"  height="898" >
      <defs>
          <path d="M840,0 L1436.5432,0 C1438.96531,30.0955474 1440.11458,52.3954015 1439.991,66.8995622 C1439.52337,121.786552 1435.17547,175.608756 1435.17547,232.63728 C1435.17547,259.085738 1435.6101,305.733558 1435.40125,368.629194 C1435.22677,421.177731 1434.6031,485.390316 1432.9015,555.581378 C1432.10975,588.240963 1439.37324,641.304704 1439.28956,697.742625 C1439.24905,726.861848 1439.55505,772.548112 1436.9217,834.801417 C1436.37322,847.767518 1434.8757,868.833713 1432.42911,898 L840,898 L840,0 Z" id="path-account-bg"></path>
      <path d="M840,0 L1436.5432,0 C1438.96531,30.0955474 1440.11458,52.3954015 1439.991,66.8995622 C1439.52337,121.786552 1435.17547,175.608756 1435.17547,232.63728 C1435.17547,259.085738 1435.6101,305.733558 1435.40125,368.629194 C1435.22677,421.177731 1434.6031,485.390316 1432.9015,555.581378 C1432.10975,588.240963 1439.37324,641.304704 1439.28956,697.742625 C1439.24905,726.861848 1439.55505,772.548112 1436.9217,834.801417 C1436.37322,847.767518 1434.8757,868.833713 1432.42911,898 L840,898 L840,0 Z" id="path-account-bg"></path><path d="M840,0 L1436.5432,0 C1438.96531,30.0955474 1440.11458,52.3954015 1439.991,66.8995622 C1439.52337,121.786552 1435.17547,175.608756 1435.17547,232.63728 C1435.17547,259.085738 1435.6101,305.733558 1435.40125,368.629194 C1435.22677,421.177731 1434.6031,485.390316 1432.9015,555.581378 C1432.10975,588.240963 1439.37324,641.304704 1439.28956,697.742625 C1439.24905,726.861848 1439.55505,772.548112 1436.9217,834.801417 C1436.37322,847.767518 1434.8757,868.833713 1432.42911,898 L840,898 L840,0 Z" id="path-account-bg"></path></defs>
      <g id="-" stroke="none" stroke-width="1" fill="none" fill-rule="evenodd">
          <g id="Contact" transform="translate(-840.000000, 0.000000)" fill="none">
              <mask id="mask-2" fill="#FFFFFF">
                  <use xlink:href="#path-account-bg" fill="#FFFFFF"></use>
              </mask>
              <use id="Mask" fill="#FFF5CC" transform="translate(1140.000000, 449.000000) scale(-1, 1) translate(-1140.000000, -449.000000) " xlink:href="#path-account-bg"></use>
          </g>
      </g>
  </svg>