<svg width="83" height="83" viewBox="0 0 83 83" version="1.1" xmlns="http://www.w3.org/2000/svg" xmlns:xlink="http://www.w3.org/1999/xlink">
    <g id="main" stroke="none" stroke-width="1" fill="none" fill-rule="evenodd">
        <path d="M76.8099081,19.4922889 C74.1464209,17.9270685 70.6207685,14.2246409 70.715794,12.978797 C70.7289727,12.8005244 70.835096,12.2512518 71.019598,12.2299141 C71.3913764,12.1851739 71.3331126,12.6153686 71.6320613,12.7399529 C72.9769836,13.3009268 74.6811992,15.3603549 78.3892727,16.8016792 C81.2996873,17.932575 84.2877869,18.2251074 83.6191407,20.3003666 C83.1003156,21.9103272 79.8548842,21.2812105 76.8099081,19.4922889" id="Fill-1" fill="#373837" transform="translate(77.213913, 16.726666) scale(-1, 1) rotate(14.000000) translate(-77.213913, -16.726666) "></path>
        <path d="M32.2924522,76.7447085 C32.7151195,79.8408146 33.1941901,79.7039369 33.6382764,81.3244349 C33.6382764,81.3244349 33.7760717,81.5801625 33.6796864,81.6662953 C33.5904408,81.7470865 31.8447961,82.3139603 31.7798252,82.2151413 C31.6741584,82.0542266 31.9147646,81.9514014 31.7819671,81.7530957 C31.0937048,80.7195024 29.3516299,79.9536552 28.3520787,76.8348475 C27.3975074,73.8535851 27.3096897,71.5667266 29.5229815,71.2595864 C32.6073108,70.8329287 32.0075801,74.6568233 32.2924522,76.7447085" id="Fill-3" fill="#373837" transform="translate(30.713913, 76.726666) scale(-1, 1) rotate(14.000000) translate(-30.713913, -76.726666) "></path>
        <path d="M71.4189065,67.7954731 C70.9254169,71.0090679 70.9006773,71.2138389 70.2229429,72.8182232 C70.2229429,72.8182232 70.1454689,73.132619 70.0367449,73.1926025 C69.9351824,73.2484491 68.5621354,73.2429334 68.5321874,73.1257244 C68.4833593,72.9354321 68.7242447,72.89958 68.6636979,72.6644725 C68.3446874,71.4399833 67.7235936,69.9562554 67.714479,66.5599525 C67.7053644,63.3132634 67.7906509,61.3710415 69.8472918,61.2310801 C72.2932556,61.0649192 71.7515889,65.6277963 71.4189065,67.7954731" id="Fill-5" fill="#373837" transform="translate(69.713949, 67.226810) scale(-1, 1) rotate(14.000000) translate(-69.713949, -67.226810) "></path>
        <path d="M1.76052734,42.7122051 C0.518740955,68.5920505 24.3113403,73.8641907 43.2288553,73.1684699 C59.0273683,72.5881268 82.4994843,68.0054895 79.4427794,39.1361865 C77.1454054,17.4465561 62.9811497,0.226258049 42.1324285,0.226258049 C15.39249,0.226258049 2.82719,20.476085 1.76052734,42.7122051" id="Fill-8" fill="#231F20" transform="translate(40.713863, 36.726465) scale(-1, 1) rotate(14.000000) translate(-40.713863, -36.726465) "></path>
        <path d="M23.7139133,26.4619589 C23.7645773,31.2379115 33.7095258,32.3519465 47.2534687,32.2159268 C60.7974115,32.0805705 71.7722995,31.4900457 71.7139133,25.9809134 C71.6632391,21.1956716 60.6706288,20.1015419 47.1273676,20.2375616 C33.5834247,20.3729179 23.6596067,21.3542507 23.7139133,26.4619589" id="Fill-11" fill="#FFCC1E" transform="translate(47.713913, 26.226666) scale(-1, 1) rotate(14.000000) translate(-47.713913, -26.226666) "></path>
        <path d="M26.7140265,22.2474801 C26.7256608,23.352136 27.6300799,24.2381875 28.7347326,24.2265531 C29.8393853,24.2155311 30.7254344,23.3104971 30.7138,22.2064535 C30.702778,21.1017977 29.7977465,20.2157461 28.6930938,20.2267681 C27.5890535,20.2384026 26.7023921,21.1428242 26.7140265,22.2474801" id="Fill-13" fill="#FEFEFE" transform="translate(28.713913, 22.226666) scale(-1, 1) rotate(14.000000) translate(-28.713913, -22.226666) "></path>
        <path d="M59.7140241,14.2471256 C59.7255306,15.3519238 60.63007,16.2380639 61.7340556,16.2265556 C62.8386804,16.2150473 63.7246816,15.310366 63.7138144,14.2062072 C63.7016686,13.1014091 62.7971292,12.2152689 61.6931436,12.2267773 C60.5885187,12.2376462 59.7025176,13.1423275 59.7140241,14.2471256" id="Fill-15" fill="#FEFEFE" transform="translate(61.713913, 14.226666) scale(-1, 1) rotate(14.000000) translate(-61.713913, -14.226666) "></path>
        <path d="M69.7139133,25.2266664 C69.7139133,25.2266664 49.1365065,29.6303341 25.7139133,25.3688366 C25.7139133,25.3688366 48.9623114,27.0445686 69.7139133,25.2266664" id="Fill-17" fill="#211C1D" transform="translate(47.713913, 26.226666) scale(-1, 1) rotate(14.000000) translate(-47.713913, -26.226666) "></path>
        <path d="M1.99014181,51.4361592 C4.27596735,53.4165201 8.88741441,55.5959615 10.0715195,55.1736499 C10.2411761,55.1129466 10.7445604,54.869481 10.7124443,54.6971622 C10.6489104,54.3499137 10.2481578,54.5189689 10.0407998,54.2820305 C9.10943412,53.221356 6.61904325,52.2403137 4.15378669,49.2847849 C2.21914327,46.9656608 1.07762685,44.3482424 -0.748101245,45.5126999 C-2.16469869,46.4154155 -0.621731538,49.173822 1.99014181,51.4361592" id="Fill-19" fill="#373837" transform="translate(4.713913, 50.226666) scale(-1, 1) rotate(14.000000) translate(-4.713913, -50.226666) "></path>
    </g>
</svg>