<svg width="1461" height="299" viewBox="0 0 1461 299" preserveAspectRatio="none" version="1.1" xmlns="http://www.w3.org/2000/svg" xmlns:xlink="http://www.w3.org/1999/xlink">
  <defs>
    <path d="M1451,269.649999 C1420.20182,274.710309 1385.46826,277.240465 1346.79932,277.240465 C1317.94816,277.240465 1281.17462,278.343818 1249.94019,274.47216 C1233.69828,272.458897 1174.61424,275.926955 1114.88864,279.720147 L1107.99678,280.158973 C1055.17417,283.529866 1003.11965,287 981.046631,287 C902.480522,287 786.782715,275.993492 647.967651,279.865151 C647.739791,279.871507 644.876127,279.875292 640.114584,279.877214 L637.959877,279.877925 C637.58211,279.878025 637.195198,279.878117 636.79941,279.878199 L620.874234,279.878091 C620.315707,279.878013 619.751261,279.877928 619.181166,279.877838 L615.694959,279.877231 C615.103343,279.877119 614.506616,279.877002 613.905046,279.87688 L610.239669,279.876093 C587.924568,279.871041 560.030678,279.860328 539.104832,279.855951 L535.683861,279.855283 C535.125169,279.855182 534.572392,279.855086 534.025799,279.854996 L516.434419,279.854923 C511.669114,279.856333 508.800957,279.859507 508.567871,279.865151 C420.266806,282.003403 413.887938,277.240465 215.5,277.240465 C149.636047,277.240465 81.4693806,279.068759 11,282.725347 L11,269.329 L10,269.33 L10,8 L1451,8 L1451,269.649999 Z" id="path-menu-bg"></path>
    <filter x="-1.1%" y="-5.0%" width="102.2%" height="111.5%" filterUnits="objectBoundingBox" id="filter-3">
      <feOffset dx="0" dy="2" in="SourceAlpha" result="shadowOffsetOuter1"></feOffset>
      <feGaussianBlur stdDeviation="5" in="shadowOffsetOuter1" result="shadowBlurOuter1"></feGaussianBlur>
      <feColorMatrix values="0 0 0 0 0   0 0 0 0 0   0 0 0 0 0  0 0 0 0.115521198 0" type="matrix" in="shadowBlurOuter1"></feColorMatrix>
    </filter>
  <path d="M1451,269.649999 C1420.20182,274.710309 1385.46826,277.240465 1346.79932,277.240465 C1317.94816,277.240465 1281.17462,278.343818 1249.94019,274.47216 C1233.69828,272.458897 1174.61424,275.926955 1114.88864,279.720147 L1107.99678,280.158973 C1055.17417,283.529866 1003.11965,287 981.046631,287 C902.480522,287 786.782715,275.993492 647.967651,279.865151 C647.739791,279.871507 644.876127,279.875292 640.114584,279.877214 L637.959877,279.877925 C637.58211,279.878025 637.195198,279.878117 636.79941,279.878199 L620.874234,279.878091 C620.315707,279.878013 619.751261,279.877928 619.181166,279.877838 L615.694959,279.877231 C615.103343,279.877119 614.506616,279.877002 613.905046,279.87688 L610.239669,279.876093 C587.924568,279.871041 560.030678,279.860328 539.104832,279.855951 L535.683861,279.855283 C535.125169,279.855182 534.572392,279.855086 534.025799,279.854996 L516.434419,279.854923 C511.669114,279.856333 508.800957,279.859507 508.567871,279.865151 C420.266806,282.003403 413.887938,277.240465 215.5,277.240465 C149.636047,277.240465 81.4693806,279.068759 11,282.725347 L11,269.329 L10,269.33 L10,8 L1451,8 L1451,269.649999 Z" id="path-menu-bg"></path><path d="M1451,269.649999 C1420.20182,274.710309 1385.46826,277.240465 1346.79932,277.240465 C1317.94816,277.240465 1281.17462,278.343818 1249.94019,274.47216 C1233.69828,272.458897 1174.61424,275.926955 1114.88864,279.720147 L1107.99678,280.158973 C1055.17417,283.529866 1003.11965,287 981.046631,287 C902.480522,287 786.782715,275.993492 647.967651,279.865151 C647.739791,279.871507 644.876127,279.875292 640.114584,279.877214 L637.959877,279.877925 C637.58211,279.878025 637.195198,279.878117 636.79941,279.878199 L620.874234,279.878091 C620.315707,279.878013 619.751261,279.877928 619.181166,279.877838 L615.694959,279.877231 C615.103343,279.877119 614.506616,279.877002 613.905046,279.87688 L610.239669,279.876093 C587.924568,279.871041 560.030678,279.860328 539.104832,279.855951 L535.683861,279.855283 C535.125169,279.855182 534.572392,279.855086 534.025799,279.854996 L516.434419,279.854923 C511.669114,279.856333 508.800957,279.859507 508.567871,279.865151 C420.266806,282.003403 413.887938,277.240465 215.5,277.240465 C149.636047,277.240465 81.4693806,279.068759 11,282.725347 L11,269.329 L10,269.33 L10,8 L1451,8 L1451,269.649999 Z" id="path-menu-bg"></path><path d="M1451,269.649999 C1420.20182,274.710309 1385.46826,277.240465 1346.79932,277.240465 C1317.94816,277.240465 1281.17462,278.343818 1249.94019,274.47216 C1233.69828,272.458897 1174.61424,275.926955 1114.88864,279.720147 L1107.99678,280.158973 C1055.17417,283.529866 1003.11965,287 981.046631,287 C902.480522,287 786.782715,275.993492 647.967651,279.865151 C647.739791,279.871507 644.876127,279.875292 640.114584,279.877214 L637.959877,279.877925 C637.58211,279.878025 637.195198,279.878117 636.79941,279.878199 L620.874234,279.878091 C620.315707,279.878013 619.751261,279.877928 619.181166,279.877838 L615.694959,279.877231 C615.103343,279.877119 614.506616,279.877002 613.905046,279.87688 L610.239669,279.876093 C587.924568,279.871041 560.030678,279.860328 539.104832,279.855951 L535.683861,279.855283 C535.125169,279.855182 534.572392,279.855086 534.025799,279.854996 L516.434419,279.854923 C511.669114,279.856333 508.800957,279.859507 508.567871,279.865151 C420.266806,282.003403 413.887938,277.240465 215.5,277.240465 C149.636047,277.240465 81.4693806,279.068759 11,282.725347 L11,269.329 L10,269.33 L10,8 L1451,8 L1451,269.649999 Z" id="path-menu-bg"></path></defs>
  <g id="-" stroke="none" stroke-width="1" fill="none" fill-rule="evenodd">
    <mask id="mask-2" fill="#FFFFFF">
      <use xlink:href="#path-menu-bg" fill="#FFFFFF"></use>
    </mask>
    <g id="Mask" fill="none">
      <use fill="black" fill-opacity="1" filter="url(#filter-3)" xlink:href="#path-menu-bg"></use>
      <use fill="#FFF5CC" fill-rule="evenodd" xlink:href="#path-menu-bg"></use>
    </g>
  </g>
</svg>